REM DIRINDEX 1\2,1\3,1\4
REM DIRNAME folder01,folder02,folder03,folder04
TITLE ""
FILE "023 023_TOEFL_3900.mp3" MP3
  TRACK 01 AUDIO
    TITLE "2:cjc151_0975"
    INDEX 01 00:00:00
  TRACK 02 AUDIO
    TITLE "0:"
    INDEX 01 00:01:30
  TRACK 03 AUDIO
    TITLE "3:cjc151_0976"
    INDEX 01 00:03:10
  TRACK 04 AUDIO
    TITLE "0:"
    INDEX 01 00:07:37
  TRACK 05 AUDIO
    TITLE "2:cjc151_0977"
    INDEX 01 00:09:14
  TRACK 06 AUDIO
    TITLE "0:"
    INDEX 01 00:12:01
  TRACK 07 AUDIO
    TITLE "3:cjc151_0978"
    INDEX 01 00:13:55
  TRACK 08 AUDIO
    TITLE "0:"
    INDEX 01 00:17:21
  TRACK 09 AUDIO
    TITLE "2:cjc151_0979"
    INDEX 01 00:19:03
  TRACK 10 AUDIO
    TITLE "0:"
    INDEX 01 00:20:16
  TRACK 11 AUDIO
    TITLE "3:cjc151_0980"
    INDEX 01 00:21:70
  TRACK 12 AUDIO
    TITLE "0:"
    INDEX 01 00:26:09
  TRACK 13 AUDIO
    TITLE "2:cjc151_0981"
    INDEX 01 00:27:63
  TRACK 14 AUDIO
    TITLE "0:"
    INDEX 01 00:28:66
  TRACK 15 AUDIO
    TITLE "3:cjc151_0982"
    INDEX 01 00:30:46
  TRACK 16 AUDIO
    TITLE "0:"
    INDEX 01 00:34:22
  TRACK 17 AUDIO
    TITLE "2:cjc151_0983"
    INDEX 01 00:36:01
  TRACK 18 AUDIO
    TITLE "0:"
    INDEX 01 00:37:05
  TRACK 19 AUDIO
    TITLE "3:cjc151_0984"
    INDEX 01 00:38:59
  TRACK 20 AUDIO
    TITLE "0:"
    INDEX 01 00:42:57
  TRACK 21 AUDIO
    TITLE "2:cjc151_0985"
    INDEX 01 00:44:38
  TRACK 22 AUDIO
    TITLE "0:"
    INDEX 01 00:45:63
  TRACK 23 AUDIO
    TITLE "3:cjc151_0986"
    INDEX 01 00:47:42
  TRACK 24 AUDIO
    TITLE "0:"
    INDEX 01 00:51:07
  TRACK 25 AUDIO
    TITLE "2:cjc151_0987"
    INDEX 01 00:52:63
  TRACK 26 AUDIO
    TITLE "0:"
    INDEX 01 00:53:74
  TRACK 27 AUDIO
    TITLE "3:cjc151_0988"
    INDEX 01 00:55:55
  TRACK 28 AUDIO
    TITLE "0:"
    INDEX 01 01:00:13
  TRACK 29 AUDIO
    TITLE "2:cjc151_0989"
    INDEX 01 01:02:05
  TRACK 30 AUDIO
    TITLE "0:"
    INDEX 01 01:03:02
  TRACK 31 AUDIO
    TITLE "3:cjc151_0990"
    INDEX 01 01:04:54
  TRACK 32 AUDIO
    TITLE "0:"
    INDEX 01 01:08:36
  TRACK 33 AUDIO
    TITLE "2:cjc151_0991"
    INDEX 01 01:10:18
  TRACK 34 AUDIO
    TITLE "0:"
    INDEX 01 01:11:45
  TRACK 35 AUDIO
    TITLE "3:cjc151_0992"
    INDEX 01 01:13:22
  TRACK 36 AUDIO
    TITLE "0:"
    INDEX 01 01:17:14
  TRACK 37 AUDIO
    TITLE "2:cjc151_0993"
    INDEX 01 01:18:70
  TRACK 38 AUDIO
    TITLE "0:"
    INDEX 01 01:20:00
  TRACK 39 AUDIO
    TITLE "3:cjc151_0994"
    INDEX 01 01:21:55
  TRACK 40 AUDIO
    TITLE "0:"
    INDEX 01 01:26:19
  TRACK 41 AUDIO
    TITLE "2:cjc151_0995"
    INDEX 01 01:28:00
  TRACK 42 AUDIO
    TITLE "0:"
    INDEX 01 01:29:13
  TRACK 43 AUDIO
    TITLE "3:cjc151_0996"
    INDEX 01 01:30:67
  TRACK 44 AUDIO
    TITLE "0:"
    INDEX 01 01:34:36
  TRACK 45 AUDIO
    TITLE "2:cjc151_0997"
    INDEX 01 01:36:15
  TRACK 46 AUDIO
    TITLE "0:"
    INDEX 01 01:37:38
  TRACK 47 AUDIO
    TITLE "3:cjc151_0998"
    INDEX 01 01:39:19
  TRACK 48 AUDIO
    TITLE "0:"
    INDEX 01 01:42:65
  TRACK 49 AUDIO
    TITLE "2:cjc151_0999"
    INDEX 01 01:44:44
  TRACK 50 AUDIO
    TITLE "0:"
    INDEX 01 01:45:65
  TRACK 51 AUDIO
    TITLE "3:cjc151_1000"
    INDEX 01 01:47:44
  TRACK 52 AUDIO
    TITLE "0:"
    INDEX 01 01:52:20
  TRACK 53 AUDIO
    TITLE "2:cjc151_1001"
    INDEX 01 01:53:74
  TRACK 54 AUDIO
    TITLE "0:"
    INDEX 01 01:55:26
  TRACK 55 AUDIO
    TITLE "3:cjc151_1002"
    INDEX 01 01:57:08
  TRACK 56 AUDIO
    TITLE "0:"
    INDEX 01 02:01:21
  TRACK 57 AUDIO
    TITLE "2:cjc151_1003"
    INDEX 01 02:03:00
  TRACK 58 AUDIO
    TITLE "0:"
    INDEX 01 02:04:21
  TRACK 59 AUDIO
    TITLE "3:cjc151_1004"
    INDEX 01 02:06:05
  TRACK 60 AUDIO
    TITLE "0:"
    INDEX 01 02:10:04
  TRACK 61 AUDIO
    TITLE "2:cjc151_1005"
    INDEX 01 02:11:63
  TRACK 62 AUDIO
    TITLE "0:"
    INDEX 01 02:13:01
  TRACK 63 AUDIO
    TITLE "3:cjc151_1006"
    INDEX 01 02:14:55
  TRACK 64 AUDIO
    TITLE "0:"
    INDEX 01 02:18:49
  TRACK 65 AUDIO
    TITLE "2:cjc151_1007"
    INDEX 01 02:20:26
  TRACK 66 AUDIO
    TITLE "0:"
    INDEX 01 02:21:53
  TRACK 67 AUDIO
    TITLE "3:cjc151_1008"
    INDEX 01 02:23:32
  TRACK 68 AUDIO
    TITLE "0:"
    INDEX 01 02:26:62
  TRACK 69 AUDIO
    TITLE "2:cjc151_1009"
    INDEX 01 02:28:41
  TRACK 70 AUDIO
    TITLE "0:"
    INDEX 01 02:29:57
  TRACK 71 AUDIO
    TITLE "3:cjc151_1010"
    INDEX 01 02:31:36
  TRACK 72 AUDIO
    TITLE "0:"
    INDEX 01 02:35:55
  TRACK 73 AUDIO
    TITLE "2:cjc151_1011"
    INDEX 01 02:37:36
  TRACK 74 AUDIO
    TITLE "0:"
    INDEX 01 02:38:42
  TRACK 75 AUDIO
    TITLE "3:cjc151_1012"
    INDEX 01 02:40:23
  TRACK 76 AUDIO
    TITLE "0:"
    INDEX 01 02:43:61
  TRACK 77 AUDIO
    TITLE "2:cjc151_1013"
    INDEX 01 02:45:38
  TRACK 78 AUDIO
    TITLE "0:"
    INDEX 01 02:46:45
  TRACK 79 AUDIO
    TITLE "3:cjc151_1014"
    INDEX 01 02:48:26
  TRACK 80 AUDIO
    TITLE "0:"
    INDEX 01 02:51:60
  TRACK 81 AUDIO
    TITLE "2:cjc151_1015"
    INDEX 01 02:53:37
  TRACK 82 AUDIO
    TITLE "0:"
    INDEX 01 02:54:47
  TRACK 83 AUDIO
    TITLE "3:cjc151_1016"
    INDEX 01 02:56:28
  TRACK 84 AUDIO
    TITLE "0:"
    INDEX 01 03:00:08
  TRACK 85 AUDIO
    TITLE "2:cjc151_1017"
    INDEX 01 03:01:62
  TRACK 86 AUDIO
    TITLE "0:"
    INDEX 01 03:03:24
  TRACK 87 AUDIO
    TITLE "3:cjc151_1018"
    INDEX 01 03:05:05
  TRACK 88 AUDIO
    TITLE "0:"
    INDEX 01 03:09:42
